<?xml version="1.0" encoding="iso-8859-1"?>
<!-- Generator: Adobe Illustrator 19.0.0, SVG Export Plug-In . SVG Version: 6.00 Build 0)  -->
<svg version="1.1" id="Capa_1" xmlns="http://www.w3.org/2000/svg" xmlns:xlink="http://www.w3.org/1999/xlink" x="0px" y="0px"
	 viewBox="0 0 512 512" style="enable-background:new 0 0 512 512;" xml:space="preserve">
<g>
	<g>
		<path d="M496.976,36.257L507.6,25.632c5.865-5.865,5.865-15.368,0-21.233c-5.865-5.865-15.368-5.865-21.233,0l-10.624,10.624
			L465.118,4.4c-5.865-5.865-15.368-5.865-21.233,0c-5.865,5.865-5.865,15.368,0,21.233l10.624,10.624l-22.418,22.418
			c-15.086-9.645-33.415-13.112-51.049-10.936l-11.474-11.474c-23.433-23.448-61.515-23.419-84.948,0
			c-17.29,17.29-21.717,42.577-13.459,64.067c-6.784,2.029-13.229,5.088-18.39,10.25c-17.636,17.636-17.58,46.151,0,63.7
			l10.622,10.626L85.351,362.949c-16.715-7.889-37.138-5.336-50.965,8.468c-14.648,14.685-16.31,36.717-6.461,53.923
			c-5.373,2.194-10.415,5.435-14.772,9.777c-17.539,17.568-17.539,46.148,0.015,63.729c17.567,17.539,46.146,17.539,63.713,0
			l0.015-0.015c4.341-4.348,7.572-9.383,9.764-14.745c20.196,11.547,40.451,6.959,53.921-6.489
			c13.805-13.805,16.357-34.233,8.468-50.95l178.036-178.035l10.616,10.616h0.015c17.636,17.636,46.136,17.565,63.7,0
			c5.163-5.163,8.721-11.436,10.879-18.203c23.265,8.648,47.476,2.315,63.438-13.646c23.419-23.419,23.419-61.53,0-84.948
			l-10.867-10.867c0.474-3.428,1.014-6.844,1.014-10.366c0-14.954-4.367-29.225-12.45-41.397l22.312-22.312l10.624,10.624
			c5.866,5.866,15.367,5.866,21.233,0c5.865-5.865,5.865-15.368,0-21.233L496.976,36.257z M119.349,456.35
			c-5.836,5.865-15.397,5.865-21.233,0l-21.204-21.203c-0.013-0.013-0.016-0.031-0.016-0.031c-0.026-0.026-0.044-0.029-0.057-0.042
			l-21.189-21.19c-5.851-5.85-5.851-15.382-0.015-21.234c5.851-5.851,15.368-5.88,21.248,0l42.467,42.467
			C125.2,440.982,125.2,450.499,119.349,456.35z M305.854,57.498c11.047-11.075,29.601-12.881,43.658,1.177
			c-4.212,2.695-8.181,5.823-11.793,9.44c-11.69,11.679-18.757,26.615-20.982,42.718l-0.251-0.251
			c-0.013-0.013-0.029-0.015-0.029-0.015l-10.602-10.602C294.151,88.247,294.151,69.199,305.854,57.498z M380.184,237.996
			c-5.675,5.69-15.543,5.69-21.218,0c-0.015,0-0.015,0-0.015,0l-84.948-84.963c-5.851-5.82-5.892-15.295,0-21.218
			c5.941-5.91,15.409-5.824,21.233,0l84.948,84.963C386.035,222.598,386.076,232.072,380.184,237.996z M454.501,206.146
			c-11.687,11.687-30.75,11.716-42.467,0l-10.616-10.616l-0.264-0.264c16.104-2.223,31.037-9.29,42.731-20.984
			c3.609-3.609,6.784-7.534,9.544-11.689C467.39,176.554,465.546,195.1,454.501,206.146z"/>
	</g>
</g>
<g>
</g>
<g>
</g>
<g>
</g>
<g>
</g>
<g>
</g>
<g>
</g>
<g>
</g>
<g>
</g>
<g>
</g>
<g>
</g>
<g>
</g>
<g>
</g>
<g>
</g>
<g>
</g>
<g>
</g>
</svg>
